<?xml version="1.0" encoding="UTF-8"?>
<svg xmlns="http://www.w3.org/2000/svg" xmlns:xlink="http://www.w3.org/1999/xlink" width="39px" height="48px" viewBox="0 0 39 47" version="1.1">
<g id="surface1">
<path style=" stroke:none;fill-rule:nonzero;fill:rgb(0%,0%,0%);fill-opacity:1;" d="M 32.570312 24.921875 C 32.640625 32.019531 38.929688 34.382812 39 34.414062 C 38.945312 34.582031 37.996094 37.78125 35.683594 41.085938 C 33.6875 43.941406 31.617188 46.789062 28.351562 46.847656 C 25.144531 46.90625 24.113281 44.988281 20.449219 44.988281 C 16.78125 44.988281 15.636719 46.789062 12.601562 46.90625 C 9.449219 47.023438 7.050781 43.816406 5.039062 40.96875 C 0.925781 35.144531 -2.21875 24.511719 2.003906 17.335938 C 4.101562 13.769531 7.847656 11.511719 11.914062 11.457031 C 15.007812 11.398438 17.925781 13.492188 19.820312 13.492188 C 21.707031 13.492188 25.257812 10.972656 28.988281 11.34375 C 30.550781 11.40625 34.933594 11.960938 37.746094 15.996094 C 37.519531 16.132812 32.515625 18.988281 32.570312 24.921875 M 26.542969 7.488281 C 28.21875 5.507812 29.34375 2.746094 29.035156 0 C 26.625 0.09375 23.710938 1.574219 21.980469 3.554688 C 20.429688 5.308594 19.074219 8.121094 19.4375 10.8125 C 22.125 11.015625 24.871094 9.472656 26.542969 7.488281 "/>
</g>
</svg>
